<?xml version="1.0" encoding="utf-8"?>
<!-- Generator: Adobe Illustrator 25.2.3, SVG Export Plug-In . SVG Version: 6.00 Build 0)  -->
<svg version="1.1" id="Layer_1" xmlns="http://www.w3.org/2000/svg" xmlns:xlink="http://www.w3.org/1999/xlink" x="0px" y="0px"
	 viewBox="0 0 30 30" style="enable-background:new 0 0 30 30;" xml:space="preserve">
<style type="text/css">
	.st0{fill:#FFFFFF;}
</style>
<g id="Isologo_4_">
	<g id="Isologo_-_S_2_">
		<path class="st0" d="M19.1,8.6c-1.6,0-3,0.6-4.1,1.5c-1.4,1.2-2.2,2.9-2.2,4.9l0,0l0,0c0,2.7-1.7,5.1-4.1,6
			c-0.7,0.3-1.5,0.4-2.3,0.4h4.5c1.6,0,3-0.6,4.1-1.5c1.4-1.2,2.2-2.9,2.2-4.9l0,0l0,0c0-2.7,1.7-5.1,4.1-6c0.7-0.3,1.5-0.4,2.2-0.4
			H19.1z"/>
	</g>
	<g id="Isologo_-_O_2_">
		<path id="Isologo_-_O_-_light_2_" class="st0" d="M17.5,2.5c-0.9,0-4.1,0-5,0C5.6,2.5,0,8.1,0,15s5.6,12.5,12.5,12.5
			c0.9,0,4.1,0,5,0C24.4,27.5,30,21.9,30,15S24.4,2.5,17.5,2.5z M17.6,23.3c-0.9,0-4.3,0-5.2,0C7.7,23.3,4,19.6,4,15
			s3.7-8.4,8.4-8.4c0.9,0,4.3,0,5.2,0c4.6,0,8.4,3.7,8.4,8.4S22.3,23.3,17.6,23.3z"/>
		<g id="Isologo_-_O_-_default_2_">
			<g>
				<g id="Isologo_-_O_-_default_-_right_2_">
					<path class="st0" d="M26.2,11.2c-0.4,0-0.7,0.1-1.1,0.2l0,0c0.5,1.1,0.8,2.3,0.8,3.6c0,4.6-3.7,8.4-8.4,8.4c-0.9,0-4.3,0-5.2,0
						c-2.1,0-4-0.8-5.5-2l0,0l0,0l-3.6,2.1c2.3,2.5,5.6,4,9.2,4c0.9,0,4.1,0,5,0c7,0,12.6-5.6,12.6-12.5
						C30,12.9,28.3,11.2,26.2,11.2z"/>
				</g>
			</g>
			<g id="Isologo_-_O_-_default_-_left_2_">
				<path class="st0" d="M6.4,21.3C2.9,21.3,0,18.5,0,15c0,3.3,1.3,6.2,3.3,8.5l3.6-2.1C6.7,21.3,6.6,21.3,6.4,21.3z"/>
			</g>
		</g>
		<g id="Isologo_-_O_-_dark_2_">
			<g id="Isologo_-_O_-_dark_-_right_2_">
				<path class="st0" d="M23.6,8.6c-0.2,0-0.4,0-0.5,0c0.9,0.8,1.6,1.7,2.1,2.8c0.3-0.1,0.7-0.2,1.1-0.2c2.1,0,3.7,1.7,3.8,3.7l0,0
					C30,11.4,27.1,8.6,23.6,8.6z"/>
			</g>
			<g id="Isologo_-_O_-_dark_-_left_2_">
				<path class="st0" d="M6.4,21.3c0.2,0,0.4,0,0.5,0c-0.9-0.8-1.6-1.7-2.1-2.8c-0.3,0.1-0.7,0.2-1.1,0.2C1.7,18.7,0,17,0,15l0,0
					C0,18.5,2.9,21.3,6.4,21.3z"/>
			</g>
		</g>
	</g>
</g>
</svg>
