<?xml version="1.0" encoding="utf-8"?>
<!-- Generator: Adobe Illustrator 25.2.3, SVG Export Plug-In . SVG Version: 6.00 Build 0)  -->
<svg version="1.1" id="Layer_1" xmlns="http://www.w3.org/2000/svg" xmlns:xlink="http://www.w3.org/1999/xlink" x="0px" y="0px"
	 viewBox="0 0 30 30" style="enable-background:new 0 0 30 30;" xml:space="preserve">
<style type="text/css">
	.st0{fill:#0657A5;}
	.st1{fill:#FFFFFF;}
</style>
<circle class="st0" cx="15" cy="15" r="15"/>
<g id="Isologo_3_">
	<g id="Isologo_-_S_1_">
		<path class="st1" d="M17.8,10.8c-1,0-2.1,0.3-2.8,1c-0.9,0.8-1.6,1.9-1.6,3.2l0,0l0,0c0,1.8-1.1,3.4-2.8,4c-0.5,0.2-1,0.3-1.6,0.3
			h3c1,0,2.1-0.3,2.8-1c0.9-0.8,1.6-1.9,1.6-3.2l0,0l0,0c0-1.8,1.1-3.4,2.8-4c0.4-0.2,0.9-0.3,1.6-0.3H17.8z"/>
	</g>
	<g id="Isologo_-_O_1_">
		<path id="Isologo_-_O_-_light_1_" class="st1" d="M16.6,6.7c-0.6,0-2.8,0-3.4,0c-4.7,0-8.5,3.7-8.5,8.3s3.8,8.3,8.5,8.3
			c0.6,0,2.8,0,3.4,0c4.7,0,8.5-3.7,8.5-8.3S21.3,6.7,16.6,6.7z M16.7,20.5c-0.6,0-2.9,0-3.5,0c-3.1,0-5.7-2.5-5.7-5.5
			s2.5-5.5,5.7-5.5c0.6,0,2.9,0,3.5,0c3.1,0,5.7,2.5,5.7,5.5S19.8,20.5,16.7,20.5z"/>
		<g id="Isologo_-_O_-_default_1_">
			<g>
				<g id="Isologo_-_O_-_default_-_right_1_">
					<path class="st1" d="M22.6,12.5c-0.3,0-0.5,0-0.7,0.1l0,0c0.3,0.7,0.5,1.6,0.5,2.4c0,3-2.5,5.5-5.7,5.5c-0.6,0-2.9,0-3.5,0
						c-1.4,0-2.7-0.5-3.7-1.4l0,0l0,0l-2.4,1.4c1.6,1.6,3.8,2.7,6.2,2.7c0.6,0,2.8,0,3.4,0c4.7,0,8.5-3.7,8.5-8.3
						C25.1,13.6,24,12.5,22.6,12.5z"/>
				</g>
			</g>
			<g id="Isologo_-_O_-_default_-_left_1_">
				<path class="st1" d="M9.1,19.2c-2.4,0-4.3-1.9-4.3-4.2c0,2.2,0.9,4.1,2.2,5.6l2.4-1.4C9.4,19.2,9.2,19.2,9.1,19.2z"/>
			</g>
		</g>
		<g id="Isologo_-_O_-_dark_1_">
			<g id="Isologo_-_O_-_dark_-_right_1_">
				<path class="st1" d="M20.8,10.8c-0.1,0-0.3,0-0.3,0c0.6,0.5,1.1,1.1,1.5,1.8c0.3-0.1,0.4-0.1,0.7-0.1c1.4,0,2.5,1.1,2.5,2.5l0,0
					C25.1,12.7,23.2,10.8,20.8,10.8z"/>
			</g>
			<g id="Isologo_-_O_-_dark_-_left_1_">
				<path class="st1" d="M9.1,19.2c0.1,0,0.3,0,0.3,0c-0.6-0.5-1.1-1.1-1.5-1.8c-0.3,0.1-0.4,0.1-0.7,0.1c-1.4,0-2.5-1.1-2.5-2.5
					l0,0C4.8,17.3,6.7,19.2,9.1,19.2z"/>
			</g>
		</g>
	</g>
</g>
</svg>
