<?xml version="1.0" encoding="utf-8"?>
<!-- Generator: Adobe Illustrator 25.2.1, SVG Export Plug-In . SVG Version: 6.00 Build 0)  -->
<svg version="1.1" id="Layer_1" xmlns="http://www.w3.org/2000/svg" xmlns:xlink="http://www.w3.org/1999/xlink" x="0px" y="0px"
	 viewBox="0 0 100.7 30" style="enable-background:new 0 0 100.7 30;" xml:space="preserve">
<style type="text/css">
	.st0{fill:#FFFFFF;}
</style>
<g>
	<path class="st0" d="M91.9,23.3c-0.6,0.6-0.9,1.5-0.9,2.8c0,1.3,0.3,2.2,0.9,2.8c0.6,0.6,1.5,0.9,2.8,0.9h5.9v-1.2h-5.9
		c-0.8,0-1.4-0.2-1.7-0.5c-0.3-0.4-0.6-0.9-0.6-1.5h8.1v-1.1h-8.1c0-0.7,0.2-1.3,0.6-1.5c0.4-0.3,1-0.5,1.7-0.5h5.9v-1.1h-5.9
		C93.4,22.5,92.5,22.7,91.9,23.3z"/>
	<path class="st0" d="M88.6,24.7c0-0.7-0.3-1.3-0.8-1.6c-0.5-0.4-1.3-0.6-2.1-0.6h-6.5v7.4h1.3v-2.6h5.3c0.5,0,0.9,0.1,1.1,0.3
		c0.3,0.3,0.4,0.6,0.4,0.9v1.5h1.3v-1.5c0-0.9-0.5-1.5-1.5-1.7c0.5-0.1,0.9-0.4,1.2-0.7C88.5,25.7,88.6,25.2,88.6,24.7z M87.1,25.8
		c-0.3,0.3-0.7,0.4-1.2,0.4h-5.4v-2.7h5.4c0.6,0,0.9,0.1,1.2,0.4c0.3,0.3,0.4,0.6,0.4,1C87.5,25.2,87.4,25.5,87.1,25.8z"/>
	<path class="st0" d="M72.8,22.7c-0.4-0.3-0.8-0.4-1.4-0.4s-1.1,0.1-1.4,0.4c-0.3,0.3-0.6,0.7-0.9,1.2l-3,5.9h1.3l1.1-2h5.9l1.1,2
		h1.3l-3-5.9C73.5,23.3,73.2,22.9,72.8,22.7z M69.1,26.7l1.4-2.6c0.3-0.5,0.6-0.8,1.1-0.8s0.8,0.3,1.1,0.8l1.4,2.6H69.1z"/>
	<path class="st0" d="M61.1,28.2c-0.2,0.3-0.3,0.5-0.5,0.6c-0.1,0.1-0.3,0.2-0.6,0.2c-0.2,0-0.4-0.1-0.6-0.2
		c-0.1-0.2-0.3-0.3-0.4-0.6L58,26l1.7-3.6h-1.3l-1.2,2.4l-1.2-2.4h-1.3l1.7,3.6l-1.1,2.1c-0.2,0.5-0.6,0.7-1.1,0.7
		c-0.2,0-0.4-0.1-0.6-0.2c-0.2-0.1-0.4-0.3-0.5-0.6L51,22.5h-1.3l2.7,6c0.5,1,1.2,1.5,2.1,1.5s1.6-0.5,2.1-1.4l0.7-1.4l0.7,1.3
		c0.5,0.9,1.2,1.4,2.1,1.4s1.6-0.5,2.1-1.5l2.7-6h-1.4L61.1,28.2z"/>
	<polygon class="st0" points="38.5,23.5 42.3,23.5 42.3,29.8 43.6,29.8 43.6,23.5 47.5,23.5 47.5,22.5 38.5,22.5 	"/>
	<path class="st0" d="M27.4,23.1c-0.7,0.5-1,1.3-1,2.5v4.1h1.3V27h7.6v-1.1h-7.6v-0.3c0-0.9,0.2-1.5,0.6-1.7
		c0.4-0.3,1.2-0.4,2.2-0.4h5v-1.2h-5C29.1,22.4,28,22.7,27.4,23.1z"/>
	<path class="st0" d="M22.4,23c-0.5-0.3-1.1-0.5-1.6-0.6c-0.7-0.1-1.5-0.2-2.3-0.2c-1,0-1.7,0.1-2.3,0.2c-0.7,0.1-1.2,0.4-1.6,0.6
		c-0.4,0.3-0.8,0.7-1,1.2c-0.2,0.5-0.3,1.1-0.3,1.8c0,0.8,0.1,1.4,0.3,1.8s0.5,0.9,1,1.2c0.5,0.3,1.1,0.5,1.6,0.6
		c0.7,0.1,1.5,0.2,2.3,0.2c1,0,1.7-0.1,2.3-0.2c0.7-0.1,1.2-0.3,1.6-0.6c0.4-0.3,0.8-0.7,1-1.2c0.2-0.5,0.3-1.1,0.3-1.8
		c0-0.8-0.1-1.4-0.3-1.8C23.2,23.7,22.9,23.3,22.4,23z M22.1,27.5c-0.2,0.3-0.4,0.6-0.8,0.8c-0.4,0.2-0.8,0.3-1.3,0.4
		c-0.5,0.1-1.1,0.1-1.7,0.1s-1.3,0-1.7-0.1c-0.4-0.1-0.8-0.2-1.1-0.4c-0.4-0.2-0.6-0.4-0.8-0.8c-0.2-0.3-0.3-0.8-0.3-1.4
		c0-0.5,0.1-0.9,0.2-1.2c0.1-0.3,0.3-0.6,0.5-0.8c0.2-0.2,0.4-0.4,0.8-0.5c0.3-0.1,0.7-0.2,1.1-0.2c0.4-0.1,0.9-0.1,1.5-0.1
		s1.1,0.1,1.5,0.1c0.4,0,0.7,0.1,1.1,0.2c0.3,0.1,0.6,0.3,0.8,0.5c0.2,0.2,0.4,0.5,0.5,0.8c0.1,0.3,0.2,0.7,0.2,1.2
		C22.4,26.7,22.3,27.1,22.1,27.5z"/>
	<path class="st0" d="M9.9,26.2c-0.5-0.3-1.2-0.5-2.1-0.6l-3.5-0.4c-0.7,0-1.1-0.1-1.4-0.3c-0.3-0.2-0.4-0.4-0.4-0.7
		c0-0.6,0.5-0.9,1.4-0.9h6.3v-1.1H4.1c-0.8,0-1.5,0.2-1.9,0.5c-0.5,0.4-0.8,0.9-0.8,1.5s0.2,1.2,0.7,1.5c0.4,0.3,1.1,0.5,1.9,0.6
		l3.7,0.3c0.6,0,1.1,0.1,1.4,0.3c0.3,0.2,0.4,0.5,0.4,0.8c0,0.7-0.6,1-1.5,1H1.2v1.2h6.6c1,0,1.6-0.2,2.1-0.6
		c0.5-0.4,0.7-0.9,0.7-1.5C10.6,27.1,10.4,26.5,9.9,26.2z"/>
	<path class="st0" d="M99.4,0.4h-0.6c-0.7,0-1.3,0.6-1.3,1.2v12L86.2,1.4c-0.3-0.7-1-1.1-1.8-1.1c-1.1,0-1.9,0.8-1.9,1.8v13.6h-3.8
		V2.1c0-1.1-0.9-1.8-1.9-1.8H63.4c-5.2,0-9.4,4.1-9.4,9.2c0,2.4,1,4.6,2.5,6.2h-6.1V1.5c0-0.7-0.6-1.2-1.3-1.2h-0.6
		c-0.7,0-1.3,0.6-1.3,1.2v14.2h-3.6l-3.6-3.7c2.1-1,3.6-3.1,3.6-5.5c0-3.4-2.8-6.1-6.3-6.1h-10c-1.1,0-1.9,0.9-1.9,1.8v13.6h-5.3
		c1.7-1.7,2.7-4,2.7-6.5c0,0,0,0,0,0c0,0,0,0,0,0c0,0,0-0.1,0-0.1c-0.1-5-4.3-9.1-9.5-9.1c-0.7,0-3.1,0-3.8,0
		c-5.2,0-9.5,4.2-9.5,9.3c0,0.3,0,0.6,0,0.9c0,0.2,0.1,0.4,0.1,0.5c0,0.1,0,0.2,0.1,0.3c0,0.2,0.1,0.4,0.2,0.7c0,0.1,0,0.1,0.1,0.2
		c0.1,0.2,0.2,0.5,0.2,0.7c0,0,0,0.1,0.1,0.1c0.1,0.2,0.2,0.4,0.3,0.7c0,0,0,0.1,0.1,0.1c0.1,0.2,0.2,0.4,0.4,0.6
		c0,0.1,0.1,0.1,0.1,0.2c0.1,0.2,0.2,0.4,0.4,0.5C2,15,2.1,15,2.1,15.1c0.1,0.2,0.3,0.3,0.4,0.5c0,0,0.1,0.1,0.1,0.1l0,0
		c1.7,1.8,4.2,3,7,3c0.7,0,3.1,0,3.8,0v0.2h13.3c1.1,0,1.9-0.9,1.9-1.8v-4.3h7.7l5.5,5.6c0.4,0.4,0.9,0.6,1.4,0.6h26.7
		c1.1,0,1.9-0.9,1.9-1.8v-6.2c0-0.7-0.6-1.2-1.3-1.2H70c-0.7,0-1.3,0.6-1.3,1.2v5.1h-5.4c-3.5,0-6.4-2.8-6.4-6.2s2.8-6.2,6.4-6.2
		h12.2v13.6c0,1.1,0.9,1.8,1.9,1.8h6.1c1.1,0,1.9-0.9,1.9-1.8V5.4l11.4,12.1c0.3,0.7,1,1.1,1.8,1.1c1.1,0,1.9-0.8,1.9-1.8V1.5
		C100.7,0.9,100.1,0.4,99.4,0.4z M8.4,15.5C8.4,15.5,8.4,15.5,8.4,15.5c-1.1-0.2-2.1-0.7-2.9-1.3h2.9c1.2,0,2.3-0.4,3.1-1.2
		c1.1-0.9,1.7-2.1,1.7-3.6c0-2,1.3-3.8,3.1-4.5c0.4-0.1,0.8-0.2,1.3-0.3c1.4,1.1,2.3,2.8,2.3,4.7c0,3.4-2.9,6.2-6.4,6.2
		c-0.7,0-3.3,0-4,0C9.1,15.6,8.7,15.5,8.4,15.5z M9.5,3.2c0.7,0,3.3,0,4,0c1.5,0,3,0.5,4.1,1.5h-2.9c-1.2,0-2.3,0.4-3.1,1.2
		c-1.1,0.9-1.7,2.1-1.7,3.6c0,2-1.3,3.8-3.1,4.5c-0.4,0.1-0.8,0.2-1.3,0.3c0,0-0.1,0-0.1-0.1l0,0C4,12.9,3.1,11.2,3.1,9.4
		C3.1,6,5.9,3.2,9.5,3.2z M37.5,9.6h-8.9V3.3h8.9c1.7,0,3.2,1.5,3.2,3.2S39.2,9.6,37.5,9.6z"/>
</g>
</svg>
