<?xml version="1.0" encoding="utf-8"?>
<!-- Generator: Adobe Illustrator 25.2.1, SVG Export Plug-In . SVG Version: 6.00 Build 0)  -->
<svg version="1.1" id="Capa_1" xmlns="http://www.w3.org/2000/svg" xmlns:xlink="http://www.w3.org/1999/xlink" x="0px" y="0px"
	 viewBox="0 0 103.8 30.4" style="enable-background:new 0 0 103.8 30.4;" xml:space="preserve">
<style type="text/css">
	.st0{fill:#939393;}
	.st1{fill:#1A8AF7;}
	.st2{fill:#4BA4F9;}
	.st3{fill:#0657A5;}
</style>
<g>
	<g id="Isologo_2_">
		<g id="Software_1_">
			<path id="E_1_" class="st0" d="M103.8,23.9h-6.1c-0.8,0-1.4,0.2-1.8,0.5s-0.6,0.9-0.6,1.6h8.4v1.1h-8.4c0,0.7,0.3,1.2,0.6,1.6
				c0.4,0.3,1,0.5,1.8,0.5h6.1v1.2h-6.1c-1.3,0-2.3-0.3-2.9-0.9c-0.6-0.6-0.9-1.6-0.9-2.9c0-1.3,0.3-2.3,0.9-2.9s1.5-0.9,2.9-0.9
				h6.1V23.9z"/>
			<path id="R_1_" class="st0" d="M81.7,30.4v-7.6h6.7c0.9,0,1.7,0.2,2.2,0.6s0.8,1,0.8,1.7c0,0.5-0.1,1-0.4,1.3s-0.7,0.6-1.2,0.7
				c1,0.3,1.5,0.9,1.5,1.8v1.5H90v-1.5c0-0.3-0.1-0.6-0.4-0.9c-0.2-0.2-0.6-0.3-1.1-0.3H83v2.7H81.7z M83,26.6h5.6
				c0.5,0,0.9-0.1,1.2-0.4c0.3-0.3,0.4-0.6,0.4-1s-0.1-0.7-0.4-1s-0.6-0.4-1.2-0.4H83V26.6z"/>
			<path id="A_1_" class="st0" d="M76,24.2l3.1,6.1h-1.3l-1.1-2.1h-6.1l-1.1,2.1h-1.3l3.1-6.1c0.3-0.5,0.6-0.9,0.9-1.2
				c0.3-0.3,0.8-0.4,1.4-0.4s1,0.1,1.4,0.4C75.5,23.3,75.8,23.7,76,24.2z M76.2,27.2l-1.4-2.7c-0.3-0.5-0.6-0.8-1.1-0.8
				s-0.8,0.3-1.1,0.8l-1.4,2.7H76.2z"/>
			<path id="W_1_" class="st0" d="M65.6,22.7H67l-2.8,6.2c-0.5,1-1.2,1.5-2.2,1.5s-1.7-0.5-2.2-1.4l-0.7-1.3l-0.7,1.4
				c-0.5,0.9-1.2,1.4-2.2,1.4S54.5,30,54,29l-2.8-6.2h1.3l2.6,5.8c0.1,0.3,0.3,0.5,0.5,0.6s0.4,0.2,0.6,0.2c0.5,0,0.9-0.2,1.1-0.7
				l1.1-2.2l-1.8-3.7h1.3l1.2,2.5l1.2-2.5h1.3l-1.8,3.7l1.1,2.2c0.1,0.3,0.3,0.4,0.4,0.6c0.2,0.1,0.4,0.2,0.6,0.2
				c0.3,0,0.5-0.1,0.6-0.2c0.2-0.1,0.3-0.3,0.5-0.6L65.6,22.7z"/>
			<path id="T_1_" class="st0" d="M44.9,30.4h-1.3v-6.5h-4v-1.1h9.3v1.1h-4V30.4z"/>
			<path id="F_1_" class="st0" d="M36.6,23.9h-5.2c-1.1,0-1.9,0.1-2.3,0.4s-0.6,0.9-0.6,1.8v0.3h7.8v1.1h-7.8v2.8h-1.3v-4.2
				c0-1.3,0.3-2.1,1-2.6c0.6-0.5,1.7-0.8,3.2-0.8h5.2C36.6,22.7,36.6,23.9,36.6,23.9z"/>
			<path id="O_1_" class="st0" d="M16.5,22.8c0.6-0.1,1.4-0.2,2.4-0.2c0.9,0,1.7,0.1,2.4,0.2c0.6,0.1,1.2,0.3,1.7,0.6
				c0.5,0.3,0.8,0.7,1,1.2s0.3,1.1,0.3,1.9s-0.1,1.4-0.3,1.9c-0.2,0.5-0.6,0.9-1,1.2c-0.5,0.3-1,0.5-1.7,0.6
				c-0.6,0.1-1.4,0.2-2.4,0.2c-0.9,0-1.7-0.1-2.4-0.2c-0.6-0.1-1.2-0.3-1.7-0.6s-0.8-0.7-1-1.2s-0.3-1.1-0.3-1.9
				c0-0.8,0.1-1.4,0.3-1.9s0.6-0.9,1-1.2C15.3,23.2,15.8,22.9,16.5,22.8z M17,29.2c0.5,0.1,1.1,0.1,1.8,0.1c0.7,0,1.3,0,1.8-0.1
				s0.9-0.2,1.3-0.4s0.6-0.5,0.8-0.8c0.2-0.4,0.3-0.8,0.3-1.4c0-0.5-0.1-0.9-0.2-1.2c-0.1-0.3-0.3-0.6-0.5-0.8
				c-0.2-0.2-0.5-0.4-0.8-0.5c-0.4-0.1-0.7-0.2-1.1-0.2s-0.9-0.1-1.5-0.1s-1.1,0-1.5,0.1c-0.4,0-0.8,0.1-1.1,0.2
				c-0.4,0.1-0.6,0.3-0.8,0.5s-0.4,0.5-0.5,0.8s-0.2,0.7-0.2,1.2c0,0.6,0.1,1.1,0.3,1.4c0.2,0.4,0.4,0.6,0.8,0.8
				C16.2,29,16.6,29.1,17,29.2z"/>
			<path id="S_1_" class="st0" d="M1.1,29.3H8c1,0,1.6-0.3,1.6-1c0-0.3-0.1-0.6-0.4-0.8c-0.3-0.2-0.8-0.3-1.4-0.3L4,26.9
				c-0.9-0.1-1.6-0.3-2-0.6c-0.5-0.3-0.7-0.8-0.7-1.5s0.3-1.2,0.8-1.6c0.5-0.3,1.2-0.5,2-0.5h6.3v1.1H3.9c-0.9,0-1.4,0.3-1.4,0.9
				c0,0.3,0.1,0.5,0.4,0.7s0.7,0.3,1.4,0.3l3.6,0.4c1,0.1,1.7,0.3,2.2,0.6c0.5,0.3,0.7,0.9,0.7,1.6s-0.2,1.2-0.7,1.6
				c-0.5,0.4-1.2,0.6-2.2,0.6H1.1V29.3z"/>
		</g>
		<g id="Origin_2_">
			<path id="Origin_3_" class="st1" d="M101.8,18.9c1.1,0,2-0.9,2-1.9V1.2c0-0.7-0.6-1.2-1.3-1.2h-0.6c-0.7,0-1.3,0.6-1.3,1.2v12.7
				 M87-0.1c-1.1,0-2,0.9-2,1.9v14h-3.9v-14c0-1.1-0.9-1.9-2-1.9H65.3c-5.4,0-9.7,4.2-9.7,9.5c0,2.5,1,4.7,2.6,6.4h-6.3V1.2
				c0-0.7-0.6-1.2-1.3-1.2H50c-0.7,0-1.3,0.6-1.3,1.2v14.7H45l-3.7-3.8c2.2-1,3.7-3.2,3.7-5.7c0-3.5-2.9-6.3-6.5-6.3H28.2
				c-1.1,0-2,0.9-2,1.9v14H13.7v3.1h13.7c1.1,0,2-0.9,2-1.9v-4.4h8l5.7,5.8l0,0c0.4,0.4,0.9,0.6,1.4,0.6h27.6c1.1,0,2-0.9,2-1.9
				v-6.4c0-0.7-0.6-1.2-1.3-1.2h-0.6c-0.7,0-1.3,0.6-1.3,1.2v5.3h-5.6c-3.6,0-6.6-2.9-6.6-6.4s2.9-6.4,6.6-6.4h12.6v14
				c0,1.1,0.9,1.9,2,1.9h6.3c1.1,0,2-0.9,2-1.9V4.9 M38.6,9.5h-9.2V3h9.2c1.8,0,3.3,1.5,3.3,3.3S40.4,9.5,38.6,9.5z"/>
			<g id="Origin_-_N_1_">
				<g id="Origin_-_N_-_Circle_-_Left_1_">
					<ellipse class="st1" cx="87" cy="1.8" rx="2" ry="1.9"/>
				</g>
				<polygon id="Origin_-_N_-_Line_1_" class="st1" points="88.5,0.7 85,1.8 100.3,18.1 103.8,17 				"/>
				<g id="Origin_-_N_-_Circle_-_Right_1_">
					<ellipse class="st1" cx="101.8" cy="17" rx="2" ry="1.9"/>
				</g>
			</g>
		</g>
		<g id="Isologo_3_">
			<g id="Isologo_-_S_1_">
				<path class="st1" d="M15,4.4c-1.2,0-2.4,0.4-3.2,1.2C10.7,6.5,10,7.8,10,9.3l0,0l0,0c0,2.1-1.3,3.9-3.2,4.6
					c-0.6,0.2-1.2,0.3-1.8,0.3h3.5c1.2,0,2.4-0.4,3.2-1.2c1.1-0.9,1.8-2.2,1.8-3.7l0,0l0,0c0-2.1,1.3-3.9,3.2-4.6
					c0.5-0.2,1.1-0.3,1.8-0.3H15z"/>
			</g>
			<g id="Isologo_-_O_1_">
				<path id="Isologo_-_O_-_light_1_" class="st2" d="M13.7-0.3c-0.7,0-3.2,0-3.9,0C4.4-0.3,0,4,0,9.3s4.4,9.6,9.8,9.6
					c0.7,0,3.2,0,3.9,0c5.4,0,9.8-4.3,9.8-9.6S19.1-0.3,13.7-0.3z M13.8,15.7c-0.7,0-3.4,0-4.1,0c-3.6,0-6.6-2.9-6.6-6.4
					S6,2.9,9.7,2.9c0.7,0,3.4,0,4.1,0c3.6,0,6.6,2.9,6.6,6.4S17.4,15.7,13.8,15.7z"/>
				<g id="Isologo_-_O_-_default_1_">
					<g>
						<g id="Isologo_-_O_-_default_-_right_1_">
							<path class="st1" d="M20.6,6.4c-0.3,0-0.6,0-0.8,0.1l0,0c0.4,0.8,0.6,1.8,0.6,2.8c0,3.5-2.9,6.4-6.6,6.4c-0.7,0-3.4,0-4.1,0
								c-1.6,0-3.1-0.6-4.3-1.6l0,0l0,0l-2.8,1.6c1.8,1.9,4.4,3.1,7.2,3.1c0.7,0,3.2,0,3.9,0c5.4,0,9.8-4.3,9.8-9.6
								C23.5,7.7,22.2,6.4,20.6,6.4z"/>
						</g>
					</g>
					<g id="Isologo_-_O_-_default_-_left_1_">
						<path class="st1" d="M5,14.2c-2.8,0-5-2.2-5-4.9c0,2.5,1,4.8,2.6,6.5l2.8-1.6C5.3,14.2,5.1,14.2,5,14.2z"/>
					</g>
				</g>
				<g id="Isologo_-_O_-_dark_1_">
					<g id="Isologo_-_O_-_dark_-_right_1_">
						<path class="st3" d="M18.5,4.4c-0.1,0-0.3,0-0.4,0c0.7,0.6,1.3,1.3,1.7,2.1c0.3-0.1,0.5-0.1,0.8-0.1c1.6,0,2.9,1.3,2.9,2.9
							l0,0C23.5,6.6,21.3,4.4,18.5,4.4z"/>
					</g>
					<g id="Isologo_-_O_-_dark_-_left_1_">
						<path class="st3" d="M5,14.2c0.1,0,0.3,0,0.4,0c-0.7-0.6-1.3-1.3-1.7-2.1c-0.3,0.1-0.5,0.1-0.8,0.1C1.3,12.2,0,10.9,0,9.3l0,0
							C0,12,2.2,14.2,5,14.2z"/>
					</g>
				</g>
			</g>
		</g>
	</g>
</g>
</svg>
